<svg id="Logo" xmlns="http://www.w3.org/2000/svg" viewBox="0 0 2345 750"><defs><style>.cls-1{fill:#fff;}.cls-2{fill:#ffb443;}.cls-3{fill:#26c6c6;}.cls-4{fill:#e6615e;}</style></defs><path class="cls-1" d="M.21,736.2V684.66l84.67-20.24V163.8L.21,143.56V92H488.87V280.68h-54.3L397.76,162H234.87V376.38L406,360.74v91.1L234.87,438V666.26H399.6l62.57-128.84h54.3L488.87,736.2Z"/><path class="cls-1" d="M541.59,324.85V276.08H761.52V593.56q0,46.94,11.5,64.88t46.48,17.94q26.67,0,55.21-13.8t46-36.81V343.25l-59.82-18.4V276.08h202.45v391.1h71.78v39.57q-20.25,13.8-32.66,19.78t-27.62,12a158.24,158.24,0,0,1-31.28,8.74,177.88,177.88,0,0,1-29.91,2.76q-66.25,0-92.94-59.81Q855.38,750,760.6,750q-140.79,0-140.8-144.48V343.25Z"/><path class="cls-1" d="M1165.32,736.2V687.43L1243.54,669V83.74h-78.22V35L1312.56,0h72.7V669l78.22,18.41V736.2Z"/><path class="cls-1" d="M1480,500.61q0-108.57,61.2-173.46t166.1-64.88q106.74,0,161.51,72.7t54.75,179.45H1621.75q6.43,67.73,48.77,116.68t108.59,49q49.7,0,106.75-20.24l19.33,52.45Q1819.6,750,1737.7,750q-118.71,0-188.19-69.48T1480,500.61Zm141.72-43.25,155.52-10.12a282.2,282.2,0,0,0-2.76-40.95q-2.76-18.85-15.64-45.55-23-38.65-54.29-38.66-36.82,0-60.74,37.73a143.22,143.22,0,0,0-18.41,50.62Q1620.81,438,1621.75,457.36Z"/><path class="cls-1" d="M1955.52,736.2V687.43L2033.74,669V359.81h-78.22V311l147.24-35h72.7v55.21q69-69,163.81-69a128,128,0,0,1,5.52,38.65q0,42.34-9.2,79.14l-116-19.32q-22.09,10.14-44.18,29.45V669l96.63,18.41V736.2Z"/><path class="cls-2" d="M1807.48,157.06l-39.93-64h51.24l19.85,36.69L1859,93h51.36l-41,64.05,42.59,66.7h-51.24l-22-39.7-21.92,39.7h-51.36Z"/><path class="cls-3" d="M1918.05,93h47.54l22.16,75a73.63,73.63,0,0,1,2.2,14.19h.92a78.28,78.28,0,0,1,2.77-14L2016.37,93h46.05l-51.7,139.06q-9.93,26.54-24.41,37.51t-37.8,11a91.37,91.37,0,0,1-18.46-2V243.15a63.76,63.76,0,0,0,14,1.38,22.86,22.86,0,0,0,10.51-2.3,24.11,24.11,0,0,0,7.84-6.52q3.35-4.22,7.16-13.8Z"/><path class="cls-4" d="M2175.46,223.76H2069.75V198l54.13-70.52h-51V93h102.59v27.92l-51.81,68.32h51.81Z"/></svg>